<?xml version="1.0" encoding="utf-8" standalone="no"?>
<!DOCTYPE svg PUBLIC "-//W3C//DTD SVG 1.1//EN"
  "http://www.w3.org/Graphics/SVG/1.1/DTD/svg11.dtd">
<svg xmlns:xlink="http://www.w3.org/1999/xlink" width="720pt" height="432pt" viewBox="0 0 720 432" xmlns="http://www.w3.org/2000/svg" version="1.1">
 <metadata>
  <rdf:RDF xmlns:dc="http://purl.org/dc/elements/1.1/" xmlns:cc="http://creativecommons.org/ns#" xmlns:rdf="http://www.w3.org/1999/02/22-rdf-syntax-ns#">
   <cc:Work>
    <dc:type rdf:resource="http://purl.org/dc/dcmitype/StillImage"/>
    <dc:date>2024-12-12T16:38:27.594387</dc:date>
    <dc:format>image/svg+xml</dc:format>
    <dc:creator>
     <cc:Agent>
      <dc:title>Matplotlib v3.9.2, https://matplotlib.org/</dc:title>
     </cc:Agent>
    </dc:creator>
   </cc:Work>
  </rdf:RDF>
 </metadata>
 <defs>
  <style type="text/css">*{stroke-linejoin: round; stroke-linecap: butt}</style>
 </defs>
 <g id="figure_1">
  <g id="patch_1">
   <path d="M 0 432 
L 720 432 
L 720 0 
L 0 0 
z
" style="fill: #ffffff"/>
  </g>
  <g id="axes_1">
   <g id="patch_2">
    <path d="M 90 384.48 
L 648 384.48 
L 648 51.84 
L 90 51.84 
z
" style="fill: #ffffff"/>
   </g>
   <g id="patch_3">
    <path d="M 115.363636 384.48 
L 120.060606 384.48 
L 120.060606 384.416715 
L 115.363636 384.416715 
z
" clip-path="url(#pdf0630fec7)" style="fill: #1f77b4"/>
   </g>
   <g id="patch_4">
    <path d="M 138.848485 384.48 
L 143.545455 384.48 
L 143.545455 384.353732 
L 138.848485 384.353732 
z
" clip-path="url(#pdf0630fec7)" style="fill: #1f77b4"/>
   </g>
   <g id="patch_5">
    <path d="M 162.333333 384.48 
L 167.030303 384.48 
L 167.030303 384.220655 
L 162.333333 384.220655 
z
" clip-path="url(#pdf0630fec7)" style="fill: #1f77b4"/>
   </g>
   <g id="patch_6">
    <path d="M 185.818182 384.48 
L 190.515152 384.48 
L 190.515152 383.949773 
L 185.818182 383.949773 
z
" clip-path="url(#pdf0630fec7)" style="fill: #1f77b4"/>
   </g>
   <g id="patch_7">
    <path d="M 209.30303 384.48 
L 214 384.48 
L 214 383.431821 
L 209.30303 383.431821 
z
" clip-path="url(#pdf0630fec7)" style="fill: #1f77b4"/>
   </g>
   <g id="patch_8">
    <path d="M 232.787879 384.48 
L 237.484848 384.48 
L 237.484848 381.890039 
L 232.787879 381.890039 
z
" clip-path="url(#pdf0630fec7)" style="fill: #1f77b4"/>
   </g>
   <g id="patch_9">
    <path d="M 256.272727 384.48 
L 260.969697 384.48 
L 260.969697 374.031752 
L 256.272727 374.031752 
z
" clip-path="url(#pdf0630fec7)" style="fill: #1f77b4"/>
   </g>
   <g id="patch_10">
    <path d="M 279.757576 384.48 
L 284.454545 384.48 
L 284.454545 363.512137 
L 279.757576 363.512137 
z
" clip-path="url(#pdf0630fec7)" style="fill: #1f77b4"/>
   </g>
   <g id="patch_11">
    <path d="M 303.242424 384.48 
L 307.939394 384.48 
L 307.939394 325.355508 
L 303.242424 325.355508 
z
" clip-path="url(#pdf0630fec7)" style="fill: #1f77b4"/>
   </g>
   <g id="patch_12">
    <path d="M 326.727273 384.48 
L 331.424242 384.48 
L 331.424242 292.105403 
L 326.727273 292.105403 
z
" clip-path="url(#pdf0630fec7)" style="fill: #1f77b4"/>
   </g>
   <g id="patch_13">
    <path d="M 350.212121 384.48 
L 354.909091 384.48 
L 354.909091 201.538071 
L 350.212121 201.538071 
z
" clip-path="url(#pdf0630fec7)" style="fill: #1f77b4"/>
   </g>
   <g id="patch_14">
    <path d="M 373.69697 384.48 
L 378.393939 384.48 
L 378.393939 384.416581 
L 373.69697 384.416581 
z
" clip-path="url(#pdf0630fec7)" style="fill: #1f77b4"/>
   </g>
   <g id="patch_15">
    <path d="M 397.181818 384.48 
L 401.878788 384.48 
L 401.878788 384.351786 
L 397.181818 384.351786 
z
" clip-path="url(#pdf0630fec7)" style="fill: #1f77b4"/>
   </g>
   <g id="patch_16">
    <path d="M 420.666667 384.48 
L 425.363636 384.48 
L 425.363636 384.227396 
L 420.666667 384.227396 
z
" clip-path="url(#pdf0630fec7)" style="fill: #1f77b4"/>
   </g>
   <g id="patch_17">
    <path d="M 444.151515 384.48 
L 448.848485 384.48 
L 448.848485 383.948465 
L 444.151515 383.948465 
z
" clip-path="url(#pdf0630fec7)" style="fill: #1f77b4"/>
   </g>
   <g id="patch_18">
    <path d="M 467.636364 384.48 
L 472.333333 384.48 
L 472.333333 383.42508 
L 467.636364 383.42508 
z
" clip-path="url(#pdf0630fec7)" style="fill: #1f77b4"/>
   </g>
   <g id="patch_19">
    <path d="M 491.121212 384.48 
L 495.818182 384.48 
L 495.818182 381.995112 
L 491.121212 381.995112 
z
" clip-path="url(#pdf0630fec7)" style="fill: #1f77b4"/>
   </g>
   <g id="patch_20">
    <path d="M 514.606061 384.48 
L 519.30303 384.48 
L 519.30303 379.471824 
L 514.606061 379.471824 
z
" clip-path="url(#pdf0630fec7)" style="fill: #1f77b4"/>
   </g>
   <g id="patch_21">
    <path d="M 538.090909 384.48 
L 542.787879 384.48 
L 542.787879 373.205457 
L 538.090909 373.205457 
z
" clip-path="url(#pdf0630fec7)" style="fill: #1f77b4"/>
   </g>
   <g id="patch_22">
    <path d="M 561.575758 384.48 
L 566.272727 384.48 
L 566.272727 357.980207 
L 561.575758 357.980207 
z
" clip-path="url(#pdf0630fec7)" style="fill: #1f77b4"/>
   </g>
   <g id="patch_23">
    <path d="M 585.060606 384.48 
L 589.757576 384.48 
L 589.757576 337.131234 
L 585.060606 337.131234 
z
" clip-path="url(#pdf0630fec7)" style="fill: #1f77b4"/>
   </g>
   <g id="patch_24">
    <path d="M 608.545455 384.48 
L 613.242424 384.48 
L 613.242424 289.786089 
L 608.545455 289.786089 
z
" clip-path="url(#pdf0630fec7)" style="fill: #1f77b4"/>
   </g>
   <g id="patch_25">
    <path d="M 120.060606 384.48 
L 124.757576 384.48 
L 124.757576 384.357287 
L 120.060606 384.357287 
z
" clip-path="url(#pdf0630fec7)" style="fill: #ff7f0e"/>
   </g>
   <g id="patch_26">
    <path d="M 143.545455 384.48 
L 148.242424 384.48 
L 148.242424 384.21653 
L 143.545455 384.21653 
z
" clip-path="url(#pdf0630fec7)" style="fill: #ff7f0e"/>
   </g>
   <g id="patch_27">
    <path d="M 167.030303 384.48 
L 171.727273 384.48 
L 171.727273 383.944542 
L 167.030303 383.944542 
z
" clip-path="url(#pdf0630fec7)" style="fill: #ff7f0e"/>
   </g>
   <g id="patch_28">
    <path d="M 190.515152 384.48 
L 195.212121 384.48 
L 195.212121 383.389564 
L 190.515152 383.389564 
z
" clip-path="url(#pdf0630fec7)" style="fill: #ff7f0e"/>
   </g>
   <g id="patch_29">
    <path d="M 214 384.48 
L 218.69697 384.48 
L 218.69697 382.3109 
L 214 382.3109 
z
" clip-path="url(#pdf0630fec7)" style="fill: #ff7f0e"/>
   </g>
   <g id="patch_30">
    <path d="M 237.484848 384.48 
L 242.181818 384.48 
L 242.181818 374.088799 
L 237.484848 374.088799 
z
" clip-path="url(#pdf0630fec7)" style="fill: #ff7f0e"/>
   </g>
   <g id="patch_31">
    <path d="M 260.969697 384.48 
L 265.666667 384.48 
L 265.666667 368.472455 
L 260.969697 368.472455 
z
" clip-path="url(#pdf0630fec7)" style="fill: #ff7f0e"/>
   </g>
   <g id="patch_32">
    <path d="M 284.454545 384.48 
L 289.151515 384.48 
L 289.151515 346.714149 
L 284.454545 346.714149 
z
" clip-path="url(#pdf0630fec7)" style="fill: #ff7f0e"/>
   </g>
   <g id="patch_33">
    <path d="M 307.939394 384.48 
L 312.636364 384.48 
L 312.636364 298.364525 
L 307.939394 298.364525 
z
" clip-path="url(#pdf0630fec7)" style="fill: #ff7f0e"/>
   </g>
   <g id="patch_34">
    <path d="M 331.424242 384.48 
L 336.121212 384.48 
L 336.121212 224.452345 
L 331.424242 224.452345 
z
" clip-path="url(#pdf0630fec7)" style="fill: #ff7f0e"/>
   </g>
   <g id="patch_35">
    <path d="M 354.909091 384.48 
L 359.606061 384.48 
L 359.606061 67.68 
L 354.909091 67.68 
z
" clip-path="url(#pdf0630fec7)" style="fill: #ff7f0e"/>
   </g>
   <g id="patch_36">
    <path d="M 378.393939 384.48 
L 383.090909 384.48 
L 383.090909 384.359467 
L 378.393939 384.359467 
z
" clip-path="url(#pdf0630fec7)" style="fill: #ff7f0e"/>
   </g>
   <g id="patch_37">
    <path d="M 401.878788 384.48 
L 406.575758 384.48 
L 406.575758 384.236284 
L 401.878788 384.236284 
z
" clip-path="url(#pdf0630fec7)" style="fill: #ff7f0e"/>
   </g>
   <g id="patch_38">
    <path d="M 425.363636 384.48 
L 430.060606 384.48 
L 430.060606 383.907483 
L 425.363636 383.907483 
z
" clip-path="url(#pdf0630fec7)" style="fill: #ff7f0e"/>
   </g>
   <g id="patch_39">
    <path d="M 448.848485 384.48 
L 453.545455 384.48 
L 453.545455 383.405126 
L 448.848485 383.405126 
z
" clip-path="url(#pdf0630fec7)" style="fill: #ff7f0e"/>
   </g>
   <g id="patch_40">
    <path d="M 472.333333 384.48 
L 477.030303 384.48 
L 477.030303 382.322068 
L 472.333333 382.322068 
z
" clip-path="url(#pdf0630fec7)" style="fill: #ff7f0e"/>
   </g>
   <g id="patch_41">
    <path d="M 495.818182 384.48 
L 500.515152 384.48 
L 500.515152 379.454015 
L 495.818182 379.454015 
z
" clip-path="url(#pdf0630fec7)" style="fill: #ff7f0e"/>
   </g>
   <g id="patch_42">
    <path d="M 519.30303 384.48 
L 524 384.48 
L 524 373.619242 
L 519.30303 373.619242 
z
" clip-path="url(#pdf0630fec7)" style="fill: #ff7f0e"/>
   </g>
   <g id="patch_43">
    <path d="M 542.787879 384.48 
L 547.484848 384.48 
L 547.484848 363.591185 
L 542.787879 363.591185 
z
" clip-path="url(#pdf0630fec7)" style="fill: #ff7f0e"/>
   </g>
   <g id="patch_44">
    <path d="M 566.272727 384.48 
L 570.969697 384.48 
L 570.969697 342.563692 
L 566.272727 342.563692 
z
" clip-path="url(#pdf0630fec7)" style="fill: #ff7f0e"/>
   </g>
   <g id="patch_45">
    <path d="M 589.757576 384.48 
L 594.454545 384.48 
L 594.454545 300.146603 
L 589.757576 300.146603 
z
" clip-path="url(#pdf0630fec7)" style="fill: #ff7f0e"/>
   </g>
   <g id="patch_46">
    <path d="M 613.242424 384.48 
L 617.939394 384.48 
L 617.939394 214.272464 
L 613.242424 214.272464 
z
" clip-path="url(#pdf0630fec7)" style="fill: #ff7f0e"/>
   </g>
   <g id="patch_47">
    <path d="M 124.757576 384.48 
L 129.454545 384.48 
L 129.454545 384.469134 
L 124.757576 384.469134 
z
" clip-path="url(#pdf0630fec7)" style="fill: #2ca02c"/>
   </g>
   <g id="patch_48">
    <path d="M 148.242424 384.48 
L 152.939394 384.48 
L 152.939394 384.455618 
L 148.242424 384.455618 
z
" clip-path="url(#pdf0630fec7)" style="fill: #2ca02c"/>
   </g>
   <g id="patch_49">
    <path d="M 171.727273 384.48 
L 176.424242 384.48 
L 176.424242 384.448307 
L 171.727273 384.448307 
z
" clip-path="url(#pdf0630fec7)" style="fill: #2ca02c"/>
   </g>
   <g id="patch_50">
    <path d="M 195.212121 384.48 
L 199.909091 384.48 
L 199.909091 384.450621 
L 195.212121 384.450621 
z
" clip-path="url(#pdf0630fec7)" style="fill: #2ca02c"/>
   </g>
   <g id="patch_51">
    <path d="M 218.69697 384.48 
L 223.393939 384.48 
L 223.393939 384.464942 
L 218.69697 384.464942 
z
" clip-path="url(#pdf0630fec7)" style="fill: #2ca02c"/>
   </g>
   <g id="patch_52">
    <path d="M 242.181818 384.48 
L 246.878788 384.48 
L 246.878788 384.250403 
L 242.181818 384.250403 
z
" clip-path="url(#pdf0630fec7)" style="fill: #2ca02c"/>
   </g>
   <g id="patch_53">
    <path d="M 265.666667 384.48 
L 270.363636 384.48 
L 270.363636 384.194261 
L 265.666667 384.194261 
z
" clip-path="url(#pdf0630fec7)" style="fill: #2ca02c"/>
   </g>
   <g id="patch_54">
    <path d="M 289.151515 384.48 
L 293.848485 384.48 
L 293.848485 384.180243 
L 289.151515 384.180243 
z
" clip-path="url(#pdf0630fec7)" style="fill: #2ca02c"/>
   </g>
   <g id="patch_55">
    <path d="M 312.636364 384.48 
L 317.333333 384.48 
L 317.333333 384.120781 
L 312.636364 384.120781 
z
" clip-path="url(#pdf0630fec7)" style="fill: #2ca02c"/>
   </g>
   <g id="patch_56">
    <path d="M 336.121212 384.48 
L 340.818182 384.48 
L 340.818182 384.305672 
L 336.121212 384.305672 
z
" clip-path="url(#pdf0630fec7)" style="fill: #2ca02c"/>
   </g>
   <g id="patch_57">
    <path d="M 359.606061 384.48 
L 364.30303 384.48 
L 364.30303 384.322777 
L 359.606061 384.322777 
z
" clip-path="url(#pdf0630fec7)" style="fill: #2ca02c"/>
   </g>
   <g id="patch_58">
    <path d="M 383.090909 384.48 
L 387.787879 384.48 
L 387.787879 384.468228 
L 383.090909 384.468228 
z
" clip-path="url(#pdf0630fec7)" style="fill: #2ca02c"/>
   </g>
   <g id="patch_59">
    <path d="M 406.575758 384.48 
L 411.272727 384.48 
L 411.272727 384.455618 
L 406.575758 384.455618 
z
" clip-path="url(#pdf0630fec7)" style="fill: #2ca02c"/>
   </g>
   <g id="patch_60">
    <path d="M 430.060606 384.48 
L 434.757576 384.48 
L 434.757576 384.42748 
L 430.060606 384.42748 
z
" clip-path="url(#pdf0630fec7)" style="fill: #2ca02c"/>
   </g>
   <g id="patch_61">
    <path d="M 453.545455 384.48 
L 458.242424 384.48 
L 458.242424 384.447368 
L 453.545455 384.447368 
z
" clip-path="url(#pdf0630fec7)" style="fill: #2ca02c"/>
   </g>
   <g id="patch_62">
    <path d="M 477.030303 384.48 
L 481.727273 384.48 
L 481.727273 384.455752 
L 477.030303 384.455752 
z
" clip-path="url(#pdf0630fec7)" style="fill: #2ca02c"/>
   </g>
   <g id="patch_63">
    <path d="M 500.515152 384.48 
L 505.212121 384.48 
L 505.212121 384.431538 
L 500.515152 384.431538 
z
" clip-path="url(#pdf0630fec7)" style="fill: #2ca02c"/>
   </g>
   <g id="patch_64">
    <path d="M 524 384.48 
L 528.69697 384.48 
L 528.69697 384.456121 
L 524 384.456121 
z
" clip-path="url(#pdf0630fec7)" style="fill: #2ca02c"/>
   </g>
   <g id="patch_65">
    <path d="M 547.484848 384.48 
L 552.181818 384.48 
L 552.181818 384.451761 
L 547.484848 384.451761 
z
" clip-path="url(#pdf0630fec7)" style="fill: #2ca02c"/>
   </g>
   <g id="patch_66">
    <path d="M 570.969697 384.48 
L 575.666667 384.48 
L 575.666667 384.45203 
L 570.969697 384.45203 
z
" clip-path="url(#pdf0630fec7)" style="fill: #2ca02c"/>
   </g>
   <g id="patch_67">
    <path d="M 594.454545 384.48 
L 599.151515 384.48 
L 599.151515 384.452768 
L 594.454545 384.452768 
z
" clip-path="url(#pdf0630fec7)" style="fill: #2ca02c"/>
   </g>
   <g id="patch_68">
    <path d="M 617.939394 384.48 
L 622.636364 384.48 
L 622.636364 384.455417 
L 617.939394 384.455417 
z
" clip-path="url(#pdf0630fec7)" style="fill: #2ca02c"/>
   </g>
   <g id="matplotlib.axis_1">
    <g id="xtick_1">
     <g id="line2d_1">
      <defs>
       <path id="meae5dc87c8" d="M 0 0 
L 0 3.5 
" style="stroke: #000000; stroke-width: 0.8"/>
      </defs>
      <g>
       <use xlink:href="#meae5dc87c8" x="122.409091" y="384.48" style="stroke: #000000; stroke-width: 0.8"/>
      </g>
     </g>
     <g id="text_1">
      <!-- 25 -->
      <g transform="translate(116.046591 399.078438) scale(0.1 -0.1)">
       <defs>
        <path id="DejaVuSans-32" d="M 1228 531 
L 3431 531 
L 3431 0 
L 469 0 
L 469 531 
Q 828 903 1448 1529 
Q 2069 2156 2228 2338 
Q 2531 2678 2651 2914 
Q 2772 3150 2772 3378 
Q 2772 3750 2511 3984 
Q 2250 4219 1831 4219 
Q 1534 4219 1204 4116 
Q 875 4013 500 3803 
L 500 4441 
Q 881 4594 1212 4672 
Q 1544 4750 1819 4750 
Q 2544 4750 2975 4387 
Q 3406 4025 3406 3419 
Q 3406 3131 3298 2873 
Q 3191 2616 2906 2266 
Q 2828 2175 2409 1742 
Q 1991 1309 1228 531 
z
" transform="scale(0.015625)"/>
        <path id="DejaVuSans-35" d="M 691 4666 
L 3169 4666 
L 3169 4134 
L 1269 4134 
L 1269 2991 
Q 1406 3038 1543 3061 
Q 1681 3084 1819 3084 
Q 2600 3084 3056 2656 
Q 3513 2228 3513 1497 
Q 3513 744 3044 326 
Q 2575 -91 1722 -91 
Q 1428 -91 1123 -41 
Q 819 9 494 109 
L 494 744 
Q 775 591 1075 516 
Q 1375 441 1709 441 
Q 2250 441 2565 725 
Q 2881 1009 2881 1497 
Q 2881 1984 2565 2268 
Q 2250 2553 1709 2553 
Q 1456 2553 1204 2497 
Q 953 2441 691 2322 
L 691 4666 
z
" transform="scale(0.015625)"/>
       </defs>
       <use xlink:href="#DejaVuSans-32"/>
       <use xlink:href="#DejaVuSans-35" x="63.623047"/>
      </g>
     </g>
    </g>
    <g id="xtick_2">
     <g id="line2d_2">
      <g>
       <use xlink:href="#meae5dc87c8" x="145.893939" y="384.48" style="stroke: #000000; stroke-width: 0.8"/>
      </g>
     </g>
     <g id="text_2">
      <!-- 26 -->
      <g transform="translate(139.531439 399.078438) scale(0.1 -0.1)">
       <defs>
        <path id="DejaVuSans-36" d="M 2113 2584 
Q 1688 2584 1439 2293 
Q 1191 2003 1191 1497 
Q 1191 994 1439 701 
Q 1688 409 2113 409 
Q 2538 409 2786 701 
Q 3034 994 3034 1497 
Q 3034 2003 2786 2293 
Q 2538 2584 2113 2584 
z
M 3366 4563 
L 3366 3988 
Q 3128 4100 2886 4159 
Q 2644 4219 2406 4219 
Q 1781 4219 1451 3797 
Q 1122 3375 1075 2522 
Q 1259 2794 1537 2939 
Q 1816 3084 2150 3084 
Q 2853 3084 3261 2657 
Q 3669 2231 3669 1497 
Q 3669 778 3244 343 
Q 2819 -91 2113 -91 
Q 1303 -91 875 529 
Q 447 1150 447 2328 
Q 447 3434 972 4092 
Q 1497 4750 2381 4750 
Q 2619 4750 2861 4703 
Q 3103 4656 3366 4563 
z
" transform="scale(0.015625)"/>
       </defs>
       <use xlink:href="#DejaVuSans-32"/>
       <use xlink:href="#DejaVuSans-36" x="63.623047"/>
      </g>
     </g>
    </g>
    <g id="xtick_3">
     <g id="line2d_3">
      <g>
       <use xlink:href="#meae5dc87c8" x="169.378788" y="384.48" style="stroke: #000000; stroke-width: 0.8"/>
      </g>
     </g>
     <g id="text_3">
      <!-- 27 -->
      <g transform="translate(163.016288 399.078438) scale(0.1 -0.1)">
       <defs>
        <path id="DejaVuSans-37" d="M 525 4666 
L 3525 4666 
L 3525 4397 
L 1831 0 
L 1172 0 
L 2766 4134 
L 525 4134 
L 525 4666 
z
" transform="scale(0.015625)"/>
       </defs>
       <use xlink:href="#DejaVuSans-32"/>
       <use xlink:href="#DejaVuSans-37" x="63.623047"/>
      </g>
     </g>
    </g>
    <g id="xtick_4">
     <g id="line2d_4">
      <g>
       <use xlink:href="#meae5dc87c8" x="192.863636" y="384.48" style="stroke: #000000; stroke-width: 0.8"/>
      </g>
     </g>
     <g id="text_4">
      <!-- 28 -->
      <g transform="translate(186.501136 399.078438) scale(0.1 -0.1)">
       <defs>
        <path id="DejaVuSans-38" d="M 2034 2216 
Q 1584 2216 1326 1975 
Q 1069 1734 1069 1313 
Q 1069 891 1326 650 
Q 1584 409 2034 409 
Q 2484 409 2743 651 
Q 3003 894 3003 1313 
Q 3003 1734 2745 1975 
Q 2488 2216 2034 2216 
z
M 1403 2484 
Q 997 2584 770 2862 
Q 544 3141 544 3541 
Q 544 4100 942 4425 
Q 1341 4750 2034 4750 
Q 2731 4750 3128 4425 
Q 3525 4100 3525 3541 
Q 3525 3141 3298 2862 
Q 3072 2584 2669 2484 
Q 3125 2378 3379 2068 
Q 3634 1759 3634 1313 
Q 3634 634 3220 271 
Q 2806 -91 2034 -91 
Q 1263 -91 848 271 
Q 434 634 434 1313 
Q 434 1759 690 2068 
Q 947 2378 1403 2484 
z
M 1172 3481 
Q 1172 3119 1398 2916 
Q 1625 2713 2034 2713 
Q 2441 2713 2670 2916 
Q 2900 3119 2900 3481 
Q 2900 3844 2670 4047 
Q 2441 4250 2034 4250 
Q 1625 4250 1398 4047 
Q 1172 3844 1172 3481 
z
" transform="scale(0.015625)"/>
       </defs>
       <use xlink:href="#DejaVuSans-32"/>
       <use xlink:href="#DejaVuSans-38" x="63.623047"/>
      </g>
     </g>
    </g>
    <g id="xtick_5">
     <g id="line2d_5">
      <g>
       <use xlink:href="#meae5dc87c8" x="216.348485" y="384.48" style="stroke: #000000; stroke-width: 0.8"/>
      </g>
     </g>
     <g id="text_5">
      <!-- 29 -->
      <g transform="translate(209.985985 399.078438) scale(0.1 -0.1)">
       <defs>
        <path id="DejaVuSans-39" d="M 703 97 
L 703 672 
Q 941 559 1184 500 
Q 1428 441 1663 441 
Q 2288 441 2617 861 
Q 2947 1281 2994 2138 
Q 2813 1869 2534 1725 
Q 2256 1581 1919 1581 
Q 1219 1581 811 2004 
Q 403 2428 403 3163 
Q 403 3881 828 4315 
Q 1253 4750 1959 4750 
Q 2769 4750 3195 4129 
Q 3622 3509 3622 2328 
Q 3622 1225 3098 567 
Q 2575 -91 1691 -91 
Q 1453 -91 1209 -44 
Q 966 3 703 97 
z
M 1959 2075 
Q 2384 2075 2632 2365 
Q 2881 2656 2881 3163 
Q 2881 3666 2632 3958 
Q 2384 4250 1959 4250 
Q 1534 4250 1286 3958 
Q 1038 3666 1038 3163 
Q 1038 2656 1286 2365 
Q 1534 2075 1959 2075 
z
" transform="scale(0.015625)"/>
       </defs>
       <use xlink:href="#DejaVuSans-32"/>
       <use xlink:href="#DejaVuSans-39" x="63.623047"/>
      </g>
     </g>
    </g>
    <g id="xtick_6">
     <g id="line2d_6">
      <g>
       <use xlink:href="#meae5dc87c8" x="239.833333" y="384.48" style="stroke: #000000; stroke-width: 0.8"/>
      </g>
     </g>
     <g id="text_6">
      <!-- 30 -->
      <g transform="translate(233.470833 399.078438) scale(0.1 -0.1)">
       <defs>
        <path id="DejaVuSans-33" d="M 2597 2516 
Q 3050 2419 3304 2112 
Q 3559 1806 3559 1356 
Q 3559 666 3084 287 
Q 2609 -91 1734 -91 
Q 1441 -91 1130 -33 
Q 819 25 488 141 
L 488 750 
Q 750 597 1062 519 
Q 1375 441 1716 441 
Q 2309 441 2620 675 
Q 2931 909 2931 1356 
Q 2931 1769 2642 2001 
Q 2353 2234 1838 2234 
L 1294 2234 
L 1294 2753 
L 1863 2753 
Q 2328 2753 2575 2939 
Q 2822 3125 2822 3475 
Q 2822 3834 2567 4026 
Q 2313 4219 1838 4219 
Q 1578 4219 1281 4162 
Q 984 4106 628 3988 
L 628 4550 
Q 988 4650 1302 4700 
Q 1616 4750 1894 4750 
Q 2613 4750 3031 4423 
Q 3450 4097 3450 3541 
Q 3450 3153 3228 2886 
Q 3006 2619 2597 2516 
z
" transform="scale(0.015625)"/>
        <path id="DejaVuSans-30" d="M 2034 4250 
Q 1547 4250 1301 3770 
Q 1056 3291 1056 2328 
Q 1056 1369 1301 889 
Q 1547 409 2034 409 
Q 2525 409 2770 889 
Q 3016 1369 3016 2328 
Q 3016 3291 2770 3770 
Q 2525 4250 2034 4250 
z
M 2034 4750 
Q 2819 4750 3233 4129 
Q 3647 3509 3647 2328 
Q 3647 1150 3233 529 
Q 2819 -91 2034 -91 
Q 1250 -91 836 529 
Q 422 1150 422 2328 
Q 422 3509 836 4129 
Q 1250 4750 2034 4750 
z
" transform="scale(0.015625)"/>
       </defs>
       <use xlink:href="#DejaVuSans-33"/>
       <use xlink:href="#DejaVuSans-30" x="63.623047"/>
      </g>
     </g>
    </g>
    <g id="xtick_7">
     <g id="line2d_7">
      <g>
       <use xlink:href="#meae5dc87c8" x="263.318182" y="384.48" style="stroke: #000000; stroke-width: 0.8"/>
      </g>
     </g>
     <g id="text_7">
      <!-- 31 -->
      <g transform="translate(256.955682 399.078438) scale(0.1 -0.1)">
       <defs>
        <path id="DejaVuSans-31" d="M 794 531 
L 1825 531 
L 1825 4091 
L 703 3866 
L 703 4441 
L 1819 4666 
L 2450 4666 
L 2450 531 
L 3481 531 
L 3481 0 
L 794 0 
L 794 531 
z
" transform="scale(0.015625)"/>
       </defs>
       <use xlink:href="#DejaVuSans-33"/>
       <use xlink:href="#DejaVuSans-31" x="63.623047"/>
      </g>
     </g>
    </g>
    <g id="xtick_8">
     <g id="line2d_8">
      <g>
       <use xlink:href="#meae5dc87c8" x="286.80303" y="384.48" style="stroke: #000000; stroke-width: 0.8"/>
      </g>
     </g>
     <g id="text_8">
      <!-- 32 -->
      <g transform="translate(280.44053 399.078438) scale(0.1 -0.1)">
       <use xlink:href="#DejaVuSans-33"/>
       <use xlink:href="#DejaVuSans-32" x="63.623047"/>
      </g>
     </g>
    </g>
    <g id="xtick_9">
     <g id="line2d_9">
      <g>
       <use xlink:href="#meae5dc87c8" x="310.287879" y="384.48" style="stroke: #000000; stroke-width: 0.8"/>
      </g>
     </g>
     <g id="text_9">
      <!-- 33 -->
      <g transform="translate(303.925379 399.078438) scale(0.1 -0.1)">
       <use xlink:href="#DejaVuSans-33"/>
       <use xlink:href="#DejaVuSans-33" x="63.623047"/>
      </g>
     </g>
    </g>
    <g id="xtick_10">
     <g id="line2d_10">
      <g>
       <use xlink:href="#meae5dc87c8" x="333.772727" y="384.48" style="stroke: #000000; stroke-width: 0.8"/>
      </g>
     </g>
     <g id="text_10">
      <!-- 34 -->
      <g transform="translate(327.410227 399.078438) scale(0.1 -0.1)">
       <defs>
        <path id="DejaVuSans-34" d="M 2419 4116 
L 825 1625 
L 2419 1625 
L 2419 4116 
z
M 2253 4666 
L 3047 4666 
L 3047 1625 
L 3713 1625 
L 3713 1100 
L 3047 1100 
L 3047 0 
L 2419 0 
L 2419 1100 
L 313 1100 
L 313 1709 
L 2253 4666 
z
" transform="scale(0.015625)"/>
       </defs>
       <use xlink:href="#DejaVuSans-33"/>
       <use xlink:href="#DejaVuSans-34" x="63.623047"/>
      </g>
     </g>
    </g>
    <g id="xtick_11">
     <g id="line2d_11">
      <g>
       <use xlink:href="#meae5dc87c8" x="357.257576" y="384.48" style="stroke: #000000; stroke-width: 0.8"/>
      </g>
     </g>
     <g id="text_11">
      <!-- 35 -->
      <g transform="translate(350.895076 399.078438) scale(0.1 -0.1)">
       <use xlink:href="#DejaVuSans-33"/>
       <use xlink:href="#DejaVuSans-35" x="63.623047"/>
      </g>
     </g>
    </g>
    <g id="xtick_12">
     <g id="line2d_12">
      <g>
       <use xlink:href="#meae5dc87c8" x="380.742424" y="384.48" style="stroke: #000000; stroke-width: 0.8"/>
      </g>
     </g>
     <g id="text_12">
      <!-- 25 -->
      <g transform="translate(374.379924 399.078438) scale(0.1 -0.1)">
       <use xlink:href="#DejaVuSans-32"/>
       <use xlink:href="#DejaVuSans-35" x="63.623047"/>
      </g>
     </g>
    </g>
    <g id="xtick_13">
     <g id="line2d_13">
      <g>
       <use xlink:href="#meae5dc87c8" x="404.227273" y="384.48" style="stroke: #000000; stroke-width: 0.8"/>
      </g>
     </g>
     <g id="text_13">
      <!-- 26 -->
      <g transform="translate(397.864773 399.078438) scale(0.1 -0.1)">
       <use xlink:href="#DejaVuSans-32"/>
       <use xlink:href="#DejaVuSans-36" x="63.623047"/>
      </g>
     </g>
    </g>
    <g id="xtick_14">
     <g id="line2d_14">
      <g>
       <use xlink:href="#meae5dc87c8" x="427.712121" y="384.48" style="stroke: #000000; stroke-width: 0.8"/>
      </g>
     </g>
     <g id="text_14">
      <!-- 27 -->
      <g transform="translate(421.349621 399.078438) scale(0.1 -0.1)">
       <use xlink:href="#DejaVuSans-32"/>
       <use xlink:href="#DejaVuSans-37" x="63.623047"/>
      </g>
     </g>
    </g>
    <g id="xtick_15">
     <g id="line2d_15">
      <g>
       <use xlink:href="#meae5dc87c8" x="451.19697" y="384.48" style="stroke: #000000; stroke-width: 0.8"/>
      </g>
     </g>
     <g id="text_15">
      <!-- 28 -->
      <g transform="translate(444.83447 399.078438) scale(0.1 -0.1)">
       <use xlink:href="#DejaVuSans-32"/>
       <use xlink:href="#DejaVuSans-38" x="63.623047"/>
      </g>
     </g>
    </g>
    <g id="xtick_16">
     <g id="line2d_16">
      <g>
       <use xlink:href="#meae5dc87c8" x="474.681818" y="384.48" style="stroke: #000000; stroke-width: 0.8"/>
      </g>
     </g>
     <g id="text_16">
      <!-- 29 -->
      <g transform="translate(468.319318 399.078438) scale(0.1 -0.1)">
       <use xlink:href="#DejaVuSans-32"/>
       <use xlink:href="#DejaVuSans-39" x="63.623047"/>
      </g>
     </g>
    </g>
    <g id="xtick_17">
     <g id="line2d_17">
      <g>
       <use xlink:href="#meae5dc87c8" x="498.166667" y="384.48" style="stroke: #000000; stroke-width: 0.8"/>
      </g>
     </g>
     <g id="text_17">
      <!-- 30 -->
      <g transform="translate(491.804167 399.078438) scale(0.1 -0.1)">
       <use xlink:href="#DejaVuSans-33"/>
       <use xlink:href="#DejaVuSans-30" x="63.623047"/>
      </g>
     </g>
    </g>
    <g id="xtick_18">
     <g id="line2d_18">
      <g>
       <use xlink:href="#meae5dc87c8" x="521.651515" y="384.48" style="stroke: #000000; stroke-width: 0.8"/>
      </g>
     </g>
     <g id="text_18">
      <!-- 31 -->
      <g transform="translate(515.289015 399.078438) scale(0.1 -0.1)">
       <use xlink:href="#DejaVuSans-33"/>
       <use xlink:href="#DejaVuSans-31" x="63.623047"/>
      </g>
     </g>
    </g>
    <g id="xtick_19">
     <g id="line2d_19">
      <g>
       <use xlink:href="#meae5dc87c8" x="545.136364" y="384.48" style="stroke: #000000; stroke-width: 0.8"/>
      </g>
     </g>
     <g id="text_19">
      <!-- 32 -->
      <g transform="translate(538.773864 399.078438) scale(0.1 -0.1)">
       <use xlink:href="#DejaVuSans-33"/>
       <use xlink:href="#DejaVuSans-32" x="63.623047"/>
      </g>
     </g>
    </g>
    <g id="xtick_20">
     <g id="line2d_20">
      <g>
       <use xlink:href="#meae5dc87c8" x="568.621212" y="384.48" style="stroke: #000000; stroke-width: 0.8"/>
      </g>
     </g>
     <g id="text_20">
      <!-- 33 -->
      <g transform="translate(562.258712 399.078438) scale(0.1 -0.1)">
       <use xlink:href="#DejaVuSans-33"/>
       <use xlink:href="#DejaVuSans-33" x="63.623047"/>
      </g>
     </g>
    </g>
    <g id="xtick_21">
     <g id="line2d_21">
      <g>
       <use xlink:href="#meae5dc87c8" x="592.106061" y="384.48" style="stroke: #000000; stroke-width: 0.8"/>
      </g>
     </g>
     <g id="text_21">
      <!-- 34 -->
      <g transform="translate(585.743561 399.078438) scale(0.1 -0.1)">
       <use xlink:href="#DejaVuSans-33"/>
       <use xlink:href="#DejaVuSans-34" x="63.623047"/>
      </g>
     </g>
    </g>
    <g id="xtick_22">
     <g id="line2d_22">
      <g>
       <use xlink:href="#meae5dc87c8" x="615.590909" y="384.48" style="stroke: #000000; stroke-width: 0.8"/>
      </g>
     </g>
     <g id="text_22">
      <!-- 35 -->
      <g transform="translate(609.228409 399.078438) scale(0.1 -0.1)">
       <use xlink:href="#DejaVuSans-33"/>
       <use xlink:href="#DejaVuSans-35" x="63.623047"/>
      </g>
     </g>
    </g>
    <g id="text_23">
     <!-- K -->
     <g transform="translate(365.721094 412.756563) scale(0.1 -0.1)">
      <defs>
       <path id="DejaVuSans-4b" d="M 628 4666 
L 1259 4666 
L 1259 2694 
L 3353 4666 
L 4166 4666 
L 1850 2491 
L 4331 0 
L 3500 0 
L 1259 2247 
L 1259 0 
L 628 0 
L 628 4666 
z
" transform="scale(0.015625)"/>
      </defs>
      <use xlink:href="#DejaVuSans-4b"/>
     </g>
    </g>
   </g>
   <g id="matplotlib.axis_2">
    <g id="ytick_1">
     <g id="line2d_23">
      <path d="M 90 384.48 
L 648 384.48 
" clip-path="url(#pdf0630fec7)" style="fill: none; stroke: #b0b0b0; stroke-width: 0.8; stroke-linecap: square"/>
     </g>
     <g id="line2d_24">
      <defs>
       <path id="mdc7a9e1b53" d="M 0 0 
L -3.5 0 
" style="stroke: #000000; stroke-width: 0.8"/>
      </defs>
      <g>
       <use xlink:href="#mdc7a9e1b53" x="90" y="384.48" style="stroke: #000000; stroke-width: 0.8"/>
      </g>
     </g>
     <g id="text_24">
      <!-- 0 -->
      <g transform="translate(76.6375 388.279219) scale(0.1 -0.1)">
       <use xlink:href="#DejaVuSans-30"/>
      </g>
     </g>
    </g>
    <g id="ytick_2">
     <g id="line2d_25">
      <path d="M 90 317.405161 
L 648 317.405161 
" clip-path="url(#pdf0630fec7)" style="fill: none; stroke: #b0b0b0; stroke-width: 0.8; stroke-linecap: square"/>
     </g>
     <g id="line2d_26">
      <g>
       <use xlink:href="#mdc7a9e1b53" x="90" y="317.405161" style="stroke: #000000; stroke-width: 0.8"/>
      </g>
     </g>
     <g id="text_25">
      <!-- 2000 -->
      <g transform="translate(57.55 321.204379) scale(0.1 -0.1)">
       <use xlink:href="#DejaVuSans-32"/>
       <use xlink:href="#DejaVuSans-30" x="63.623047"/>
       <use xlink:href="#DejaVuSans-30" x="127.246094"/>
       <use xlink:href="#DejaVuSans-30" x="190.869141"/>
      </g>
     </g>
    </g>
    <g id="ytick_3">
     <g id="line2d_27">
      <path d="M 90 250.330321 
L 648 250.330321 
" clip-path="url(#pdf0630fec7)" style="fill: none; stroke: #b0b0b0; stroke-width: 0.8; stroke-linecap: square"/>
     </g>
     <g id="line2d_28">
      <g>
       <use xlink:href="#mdc7a9e1b53" x="90" y="250.330321" style="stroke: #000000; stroke-width: 0.8"/>
      </g>
     </g>
     <g id="text_26">
      <!-- 4000 -->
      <g transform="translate(57.55 254.12954) scale(0.1 -0.1)">
       <use xlink:href="#DejaVuSans-34"/>
       <use xlink:href="#DejaVuSans-30" x="63.623047"/>
       <use xlink:href="#DejaVuSans-30" x="127.246094"/>
       <use xlink:href="#DejaVuSans-30" x="190.869141"/>
      </g>
     </g>
    </g>
    <g id="ytick_4">
     <g id="line2d_29">
      <path d="M 90 183.255482 
L 648 183.255482 
" clip-path="url(#pdf0630fec7)" style="fill: none; stroke: #b0b0b0; stroke-width: 0.8; stroke-linecap: square"/>
     </g>
     <g id="line2d_30">
      <g>
       <use xlink:href="#mdc7a9e1b53" x="90" y="183.255482" style="stroke: #000000; stroke-width: 0.8"/>
      </g>
     </g>
     <g id="text_27">
      <!-- 6000 -->
      <g transform="translate(57.55 187.054701) scale(0.1 -0.1)">
       <use xlink:href="#DejaVuSans-36"/>
       <use xlink:href="#DejaVuSans-30" x="63.623047"/>
       <use xlink:href="#DejaVuSans-30" x="127.246094"/>
       <use xlink:href="#DejaVuSans-30" x="190.869141"/>
      </g>
     </g>
    </g>
    <g id="ytick_5">
     <g id="line2d_31">
      <path d="M 90 116.180643 
L 648 116.180643 
" clip-path="url(#pdf0630fec7)" style="fill: none; stroke: #b0b0b0; stroke-width: 0.8; stroke-linecap: square"/>
     </g>
     <g id="line2d_32">
      <g>
       <use xlink:href="#mdc7a9e1b53" x="90" y="116.180643" style="stroke: #000000; stroke-width: 0.8"/>
      </g>
     </g>
     <g id="text_28">
      <!-- 8000 -->
      <g transform="translate(57.55 119.979861) scale(0.1 -0.1)">
       <use xlink:href="#DejaVuSans-38"/>
       <use xlink:href="#DejaVuSans-30" x="63.623047"/>
       <use xlink:href="#DejaVuSans-30" x="127.246094"/>
       <use xlink:href="#DejaVuSans-30" x="190.869141"/>
      </g>
     </g>
    </g>
    <g id="text_29">
     <!-- Time (s) -->
     <g transform="translate(51.470312 238.488906) rotate(-90) scale(0.1 -0.1)">
      <defs>
       <path id="DejaVuSans-54" d="M -19 4666 
L 3928 4666 
L 3928 4134 
L 2272 4134 
L 2272 0 
L 1638 0 
L 1638 4134 
L -19 4134 
L -19 4666 
z
" transform="scale(0.015625)"/>
       <path id="DejaVuSans-69" d="M 603 3500 
L 1178 3500 
L 1178 0 
L 603 0 
L 603 3500 
z
M 603 4863 
L 1178 4863 
L 1178 4134 
L 603 4134 
L 603 4863 
z
" transform="scale(0.015625)"/>
       <path id="DejaVuSans-6d" d="M 3328 2828 
Q 3544 3216 3844 3400 
Q 4144 3584 4550 3584 
Q 5097 3584 5394 3201 
Q 5691 2819 5691 2113 
L 5691 0 
L 5113 0 
L 5113 2094 
Q 5113 2597 4934 2840 
Q 4756 3084 4391 3084 
Q 3944 3084 3684 2787 
Q 3425 2491 3425 1978 
L 3425 0 
L 2847 0 
L 2847 2094 
Q 2847 2600 2669 2842 
Q 2491 3084 2119 3084 
Q 1678 3084 1418 2786 
Q 1159 2488 1159 1978 
L 1159 0 
L 581 0 
L 581 3500 
L 1159 3500 
L 1159 2956 
Q 1356 3278 1631 3431 
Q 1906 3584 2284 3584 
Q 2666 3584 2933 3390 
Q 3200 3197 3328 2828 
z
" transform="scale(0.015625)"/>
       <path id="DejaVuSans-65" d="M 3597 1894 
L 3597 1613 
L 953 1613 
Q 991 1019 1311 708 
Q 1631 397 2203 397 
Q 2534 397 2845 478 
Q 3156 559 3463 722 
L 3463 178 
Q 3153 47 2828 -22 
Q 2503 -91 2169 -91 
Q 1331 -91 842 396 
Q 353 884 353 1716 
Q 353 2575 817 3079 
Q 1281 3584 2069 3584 
Q 2775 3584 3186 3129 
Q 3597 2675 3597 1894 
z
M 3022 2063 
Q 3016 2534 2758 2815 
Q 2500 3097 2075 3097 
Q 1594 3097 1305 2825 
Q 1016 2553 972 2059 
L 3022 2063 
z
" transform="scale(0.015625)"/>
       <path id="DejaVuSans-20" transform="scale(0.015625)"/>
       <path id="DejaVuSans-28" d="M 1984 4856 
Q 1566 4138 1362 3434 
Q 1159 2731 1159 2009 
Q 1159 1288 1364 580 
Q 1569 -128 1984 -844 
L 1484 -844 
Q 1016 -109 783 600 
Q 550 1309 550 2009 
Q 550 2706 781 3412 
Q 1013 4119 1484 4856 
L 1984 4856 
z
" transform="scale(0.015625)"/>
       <path id="DejaVuSans-73" d="M 2834 3397 
L 2834 2853 
Q 2591 2978 2328 3040 
Q 2066 3103 1784 3103 
Q 1356 3103 1142 2972 
Q 928 2841 928 2578 
Q 928 2378 1081 2264 
Q 1234 2150 1697 2047 
L 1894 2003 
Q 2506 1872 2764 1633 
Q 3022 1394 3022 966 
Q 3022 478 2636 193 
Q 2250 -91 1575 -91 
Q 1294 -91 989 -36 
Q 684 19 347 128 
L 347 722 
Q 666 556 975 473 
Q 1284 391 1588 391 
Q 1994 391 2212 530 
Q 2431 669 2431 922 
Q 2431 1156 2273 1281 
Q 2116 1406 1581 1522 
L 1381 1569 
Q 847 1681 609 1914 
Q 372 2147 372 2553 
Q 372 3047 722 3315 
Q 1072 3584 1716 3584 
Q 2034 3584 2315 3537 
Q 2597 3491 2834 3397 
z
" transform="scale(0.015625)"/>
       <path id="DejaVuSans-29" d="M 513 4856 
L 1013 4856 
Q 1481 4119 1714 3412 
Q 1947 2706 1947 2009 
Q 1947 1309 1714 600 
Q 1481 -109 1013 -844 
L 513 -844 
Q 928 -128 1133 580 
Q 1338 1288 1338 2009 
Q 1338 2731 1133 3434 
Q 928 4138 513 4856 
z
" transform="scale(0.015625)"/>
      </defs>
      <use xlink:href="#DejaVuSans-54"/>
      <use xlink:href="#DejaVuSans-69" x="57.958984"/>
      <use xlink:href="#DejaVuSans-6d" x="85.742188"/>
      <use xlink:href="#DejaVuSans-65" x="183.154297"/>
      <use xlink:href="#DejaVuSans-20" x="244.677734"/>
      <use xlink:href="#DejaVuSans-28" x="276.464844"/>
      <use xlink:href="#DejaVuSans-73" x="315.478516"/>
      <use xlink:href="#DejaVuSans-29" x="367.578125"/>
     </g>
    </g>
   </g>
   <g id="patch_69">
    <path d="M 90 384.48 
L 90 51.84 
" style="fill: none; stroke: #000000; stroke-width: 0.8; stroke-linejoin: miter; stroke-linecap: square"/>
   </g>
   <g id="patch_70">
    <path d="M 648 384.48 
L 648 51.84 
" style="fill: none; stroke: #000000; stroke-width: 0.8; stroke-linejoin: miter; stroke-linecap: square"/>
   </g>
   <g id="patch_71">
    <path d="M 90 384.48 
L 648 384.48 
" style="fill: none; stroke: #000000; stroke-width: 0.8; stroke-linejoin: miter; stroke-linecap: square"/>
   </g>
   <g id="patch_72">
    <path d="M 90 51.84 
L 648 51.84 
" style="fill: none; stroke: #000000; stroke-width: 0.8; stroke-linejoin: miter; stroke-linecap: square"/>
   </g>
   <g id="text_30">
    <!-- opi5: (nvme) -->
    <g transform="translate(330.535313 45.84) scale(0.12 -0.12)">
     <defs>
      <path id="DejaVuSans-6f" d="M 1959 3097 
Q 1497 3097 1228 2736 
Q 959 2375 959 1747 
Q 959 1119 1226 758 
Q 1494 397 1959 397 
Q 2419 397 2687 759 
Q 2956 1122 2956 1747 
Q 2956 2369 2687 2733 
Q 2419 3097 1959 3097 
z
M 1959 3584 
Q 2709 3584 3137 3096 
Q 3566 2609 3566 1747 
Q 3566 888 3137 398 
Q 2709 -91 1959 -91 
Q 1206 -91 779 398 
Q 353 888 353 1747 
Q 353 2609 779 3096 
Q 1206 3584 1959 3584 
z
" transform="scale(0.015625)"/>
      <path id="DejaVuSans-70" d="M 1159 525 
L 1159 -1331 
L 581 -1331 
L 581 3500 
L 1159 3500 
L 1159 2969 
Q 1341 3281 1617 3432 
Q 1894 3584 2278 3584 
Q 2916 3584 3314 3078 
Q 3713 2572 3713 1747 
Q 3713 922 3314 415 
Q 2916 -91 2278 -91 
Q 1894 -91 1617 61 
Q 1341 213 1159 525 
z
M 3116 1747 
Q 3116 2381 2855 2742 
Q 2594 3103 2138 3103 
Q 1681 3103 1420 2742 
Q 1159 2381 1159 1747 
Q 1159 1113 1420 752 
Q 1681 391 2138 391 
Q 2594 391 2855 752 
Q 3116 1113 3116 1747 
z
" transform="scale(0.015625)"/>
      <path id="DejaVuSans-3a" d="M 750 794 
L 1409 794 
L 1409 0 
L 750 0 
L 750 794 
z
M 750 3309 
L 1409 3309 
L 1409 2516 
L 750 2516 
L 750 3309 
z
" transform="scale(0.015625)"/>
      <path id="DejaVuSans-6e" d="M 3513 2113 
L 3513 0 
L 2938 0 
L 2938 2094 
Q 2938 2591 2744 2837 
Q 2550 3084 2163 3084 
Q 1697 3084 1428 2787 
Q 1159 2491 1159 1978 
L 1159 0 
L 581 0 
L 581 3500 
L 1159 3500 
L 1159 2956 
Q 1366 3272 1645 3428 
Q 1925 3584 2291 3584 
Q 2894 3584 3203 3211 
Q 3513 2838 3513 2113 
z
" transform="scale(0.015625)"/>
      <path id="DejaVuSans-76" d="M 191 3500 
L 800 3500 
L 1894 563 
L 2988 3500 
L 3597 3500 
L 2284 0 
L 1503 0 
L 191 3500 
z
" transform="scale(0.015625)"/>
     </defs>
     <use xlink:href="#DejaVuSans-6f"/>
     <use xlink:href="#DejaVuSans-70" x="61.181641"/>
     <use xlink:href="#DejaVuSans-69" x="124.658203"/>
     <use xlink:href="#DejaVuSans-35" x="152.441406"/>
     <use xlink:href="#DejaVuSans-3a" x="216.064453"/>
     <use xlink:href="#DejaVuSans-20" x="249.755859"/>
     <use xlink:href="#DejaVuSans-28" x="281.542969"/>
     <use xlink:href="#DejaVuSans-6e" x="320.556641"/>
     <use xlink:href="#DejaVuSans-76" x="383.935547"/>
     <use xlink:href="#DejaVuSans-6d" x="443.115234"/>
     <use xlink:href="#DejaVuSans-65" x="540.527344"/>
     <use xlink:href="#DejaVuSans-29" x="602.050781"/>
    </g>
   </g>
   <g id="legend_1">
    <g id="patch_73">
     <path d="M 576.989063 103.874375 
L 641 103.874375 
Q 643 103.874375 643 101.874375 
L 643 58.84 
Q 643 56.84 641 56.84 
L 576.989063 56.84 
Q 574.989063 56.84 574.989063 58.84 
L 574.989063 101.874375 
Q 574.989063 103.874375 576.989063 103.874375 
z
" style="fill: #ffffff; opacity: 0.8; stroke: #cccccc; stroke-linejoin: miter"/>
    </g>
    <g id="patch_74">
     <path d="M 578.989063 68.438437 
L 598.989063 68.438437 
L 598.989063 61.438437 
L 578.989063 61.438437 
z
" style="fill: #1f77b4"/>
    </g>
    <g id="text_31">
     <!-- HASH -->
     <g transform="translate(606.989063 68.438437) scale(0.1 -0.1)">
      <defs>
       <path id="DejaVuSans-48" d="M 628 4666 
L 1259 4666 
L 1259 2753 
L 3553 2753 
L 3553 4666 
L 4184 4666 
L 4184 0 
L 3553 0 
L 3553 2222 
L 1259 2222 
L 1259 0 
L 628 0 
L 628 4666 
z
" transform="scale(0.015625)"/>
       <path id="DejaVuSans-41" d="M 2188 4044 
L 1331 1722 
L 3047 1722 
L 2188 4044 
z
M 1831 4666 
L 2547 4666 
L 4325 0 
L 3669 0 
L 3244 1197 
L 1141 1197 
L 716 0 
L 50 0 
L 1831 4666 
z
" transform="scale(0.015625)"/>
       <path id="DejaVuSans-53" d="M 3425 4513 
L 3425 3897 
Q 3066 4069 2747 4153 
Q 2428 4238 2131 4238 
Q 1616 4238 1336 4038 
Q 1056 3838 1056 3469 
Q 1056 3159 1242 3001 
Q 1428 2844 1947 2747 
L 2328 2669 
Q 3034 2534 3370 2195 
Q 3706 1856 3706 1288 
Q 3706 609 3251 259 
Q 2797 -91 1919 -91 
Q 1588 -91 1214 -16 
Q 841 59 441 206 
L 441 856 
Q 825 641 1194 531 
Q 1563 422 1919 422 
Q 2459 422 2753 634 
Q 3047 847 3047 1241 
Q 3047 1584 2836 1778 
Q 2625 1972 2144 2069 
L 1759 2144 
Q 1053 2284 737 2584 
Q 422 2884 422 3419 
Q 422 4038 858 4394 
Q 1294 4750 2059 4750 
Q 2388 4750 2728 4690 
Q 3069 4631 3425 4513 
z
" transform="scale(0.015625)"/>
      </defs>
      <use xlink:href="#DejaVuSans-48"/>
      <use xlink:href="#DejaVuSans-41" x="75.195312"/>
      <use xlink:href="#DejaVuSans-53" x="143.603516"/>
      <use xlink:href="#DejaVuSans-48" x="207.080078"/>
     </g>
    </g>
    <g id="patch_75">
     <path d="M 578.989063 83.116562 
L 598.989063 83.116562 
L 598.989063 76.116562 
L 578.989063 76.116562 
z
" style="fill: #ff7f0e"/>
    </g>
    <g id="text_32">
     <!-- SORT -->
     <g transform="translate(606.989063 83.116562) scale(0.1 -0.1)">
      <defs>
       <path id="DejaVuSans-4f" d="M 2522 4238 
Q 1834 4238 1429 3725 
Q 1025 3213 1025 2328 
Q 1025 1447 1429 934 
Q 1834 422 2522 422 
Q 3209 422 3611 934 
Q 4013 1447 4013 2328 
Q 4013 3213 3611 3725 
Q 3209 4238 2522 4238 
z
M 2522 4750 
Q 3503 4750 4090 4092 
Q 4678 3434 4678 2328 
Q 4678 1225 4090 567 
Q 3503 -91 2522 -91 
Q 1538 -91 948 565 
Q 359 1222 359 2328 
Q 359 3434 948 4092 
Q 1538 4750 2522 4750 
z
" transform="scale(0.015625)"/>
       <path id="DejaVuSans-52" d="M 2841 2188 
Q 3044 2119 3236 1894 
Q 3428 1669 3622 1275 
L 4263 0 
L 3584 0 
L 2988 1197 
Q 2756 1666 2539 1819 
Q 2322 1972 1947 1972 
L 1259 1972 
L 1259 0 
L 628 0 
L 628 4666 
L 2053 4666 
Q 2853 4666 3247 4331 
Q 3641 3997 3641 3322 
Q 3641 2881 3436 2590 
Q 3231 2300 2841 2188 
z
M 1259 4147 
L 1259 2491 
L 2053 2491 
Q 2509 2491 2742 2702 
Q 2975 2913 2975 3322 
Q 2975 3731 2742 3939 
Q 2509 4147 2053 4147 
L 1259 4147 
z
" transform="scale(0.015625)"/>
      </defs>
      <use xlink:href="#DejaVuSans-53"/>
      <use xlink:href="#DejaVuSans-4f" x="63.476562"/>
      <use xlink:href="#DejaVuSans-52" x="142.1875"/>
      <use xlink:href="#DejaVuSans-54" x="204.419922"/>
     </g>
    </g>
    <g id="patch_76">
     <path d="M 578.989063 97.794687 
L 598.989063 97.794687 
L 598.989063 90.794687 
L 578.989063 90.794687 
z
" style="fill: #2ca02c"/>
    </g>
    <g id="text_33">
     <!-- FLUSH -->
     <g transform="translate(606.989063 97.794687) scale(0.1 -0.1)">
      <defs>
       <path id="DejaVuSans-46" d="M 628 4666 
L 3309 4666 
L 3309 4134 
L 1259 4134 
L 1259 2759 
L 3109 2759 
L 3109 2228 
L 1259 2228 
L 1259 0 
L 628 0 
L 628 4666 
z
" transform="scale(0.015625)"/>
       <path id="DejaVuSans-4c" d="M 628 4666 
L 1259 4666 
L 1259 531 
L 3531 531 
L 3531 0 
L 628 0 
L 628 4666 
z
" transform="scale(0.015625)"/>
       <path id="DejaVuSans-55" d="M 556 4666 
L 1191 4666 
L 1191 1831 
Q 1191 1081 1462 751 
Q 1734 422 2344 422 
Q 2950 422 3222 751 
Q 3494 1081 3494 1831 
L 3494 4666 
L 4128 4666 
L 4128 1753 
Q 4128 841 3676 375 
Q 3225 -91 2344 -91 
Q 1459 -91 1007 375 
Q 556 841 556 1753 
L 556 4666 
z
" transform="scale(0.015625)"/>
      </defs>
      <use xlink:href="#DejaVuSans-46"/>
      <use xlink:href="#DejaVuSans-4c" x="57.519531"/>
      <use xlink:href="#DejaVuSans-55" x="108.232422"/>
      <use xlink:href="#DejaVuSans-53" x="181.425781"/>
      <use xlink:href="#DejaVuSans-48" x="244.902344"/>
     </g>
    </g>
   </g>
  </g>
 </g>
 <defs>
  <clipPath id="pdf0630fec7">
   <rect x="90" y="51.84" width="558" height="332.64"/>
  </clipPath>
 </defs>
</svg>
